<?xml version="1.0" encoding="utf-8"?>
<!-- Generator: Adobe Illustrator 16.0.0, SVG Export Plug-In . SVG Version: 6.00 Build 0)  -->
<!DOCTYPE svg PUBLIC "-//W3C//DTD SVG 1.1//EN" "http://www.w3.org/Graphics/SVG/1.1/DTD/svg11.dtd">
<svg version="1.1" id="castl0" xmlns="http://www.w3.org/2000/svg" xmlns:xlink="http://www.w3.org/1999/xlink" x="0px" y="0px"
	 width="120px" height="120px" viewBox="0 0 120 120" enable-background="new 0 0 120 120" xml:space="preserve">
<linearGradient id="SVGID_1_" gradientUnits="userSpaceOnUse" x1="-533.333" y1="1076.9697" x2="-532.333" y2="1076.9697" gradientTransform="matrix(14.2522 0 0 14.2522 7652.0342 -15295.6514)">
	<stop  offset="0" style="stop-color:#4770A8"/>
	<stop  offset="0.1626" style="stop-color:#25426B"/>
	<stop  offset="1" style="stop-color:#25426B"/>
</linearGradient>
<rect x="52.913" y="44.087" fill="url(#SVGID_1_)" width="12.229" height="18.901"/>
<linearGradient id="SVGID_2_" gradientUnits="userSpaceOnUse" x1="-533.3999" y1="1076.9258" x2="-532.2925" y2="1076.9258" gradientTransform="matrix(41.0259 0 0 41.0259 21888.7656 -44153.4219)">
	<stop  offset="0" style="stop-color:#304C73"/>
	<stop  offset="0.8374" style="stop-color:#304C73"/>
	<stop  offset="1" style="stop-color:#304C73"/>
</linearGradient>
<path fill="url(#SVGID_2_)" d="M50.784,19.378c0.161-0.093,0.229,0.067,0.205,0.483c-0.09-0.348-0.183-0.696-0.273-1.043
	c0.181-0.068,0.267,0.083,0.26,0.457c-0.565-0.522-0.681-0.864-0.341-1.024c0.101,0.175,0.199,0.351,0.299,0.526
	c-0.604-2.225-2.827-5.177-5.196-5.72c-1.078-0.257-2.712-0.223-3.732,0.234c-0.357,0.209-2.612,0.012-1.813,0.284
	c-0.147,0.004-1.755-0.044-1.311,0.159c-0.36,0.03-0.848-0.241-1.169-0.072c0.506,0.388-0.813,0.49-1.409,1.002
	c-0.078,0.065-1.278,1.354-0.901,1.689c0.665-0.629,3.817,0.743,3.563,0.38c0.326-0.025,0.246,0.409,0.466,0.515
	c-0.059-0.16-0.118-0.319-0.177-0.479c0.27,0.026,0.412,0.19,0.62,0.405l-0.097-0.257c0.337,0.166,0.705,0.492,0.805,0.577
	c-3.609,1.073-7.299,1.757-10.777,3.272c-1.976,0.863-4.502,1.043-6.571,1.671c-0.686,0.181-7.045,2.548-4.628,3.024
	c-1.361,0.539-2.627,0.613-4.62,0.772c-0.894,0.075-5.047,0.687-4.443,1.074c-0.456,0.056-4.115,1.031-2.733,1.445
	c-0.172,0.177-1.413,0.422-1.242,0.569c1.644,1.357,5.216,1.265,7.167,1.213c2.668-0.07,5.146,0.744,7.838,0.744
	c-1.079,0.963,4.689,0.764,3.46,1.435c1.02-0.293,1.262-0.207,0.726,0.259c0.233-0.116,1.287-0.658,0.501,0.003
	c1.299,0.048,0.485,0.168,1.075,0.12c-0.397,0.195-0.417,0.506-0.731,0.802c0.211,0.169,0.451,0.238,0.719,0.205
	c0.013-0.009-0.708,0.378-0.575,0.604l0.876-0.243c-0.795,0.964,0.644,0.39,1.08,0.655c-0.446,0.199-1.292,0.685-1.525,1.065
	c1.357-0.218,3.17-0.625,4.573-0.625c-0.386,0.375-0.758,0.654-0.979,1.165c0.135,0.087,1.782-0.869,2.092-1.021
	c-0.051,0.1-0.006,0.614-0.083,1.472c-0.048,0.529,0.138,1.7,0.627,2.076c0.051-0.154,0.715,0.7,0.934,0.89
	c0.194-0.524,2.08,1.862,2.594,2.632c-0.444,0.241-2.515,0.323-2.489,0.925c0.724,0.624,9.854,0.137,9.868,0.028
	c0.025-0.207-0.319-0.2-0.377-0.35c0.304-0.081,2.851-0.051,2.846-0.186c-0.036-1.039-3.194-0.87-3.704-0.808
	c-1.108,0.136-2.389-1.125-3.089-1.82c-3.691-3.727-1.266-5.306,1.698-7.935c0.015,0.5,1.593-0.464,2.199-0.826
	c0.923-0.55,1.866-0.949,2.846-1.678c1.129-0.923,1.886-2.602,2.422-4.177c0.104,0.188,0.205,0.375,0.307,0.563
	c-0.171-0.281-0.173-0.563-0.01-0.847c-0.012,0.176,0.031,0.33,0.134,0.462c-0.057-0.197-0.056-0.391,0.01-0.567
	c0.14,0.587,0.215-0.647,0.434-0.871c-0.095,1.26,0.477-0.993,0.491-1.033c-0.02,0.466-0.053,0.931-0.101,1.395
	c0.207-0.603,0.322-1.232,0.346-1.868c0.153,0.403,0.198,0.826,0.259,1.246c0.063-0.582-0.049-1.178-0.049-1.763
	c0.171,0,0.265,1.233,0.27,1.31c0.037-0.415-0.096-0.927-0.002-1.327l0.271,0.531c-0.102-0.387-0.146-0.78-0.13-1.18
	c0.153-0.02,0.043,0.344,0.196,0.3c0-0.927-0.082-1.611,0.098-0.805c0-0.263,0-0.504,0-0.745c0.082,0.195,0.137,0.397,0.137,0.613
	c0.063-0.446,0.007-0.897-0.046-1.339c0.143,0.259,0.151,0.545,0.205,0.849C50.973,20.365,50.907,19.867,50.784,19.378
	C50.786,19.375,50.832,19.621,50.784,19.378z M37.602,40.92c3.937,3.994-4.622-0.188-2.942-2.509
	c0.291,0.773,0.236,0.203,0.88,0.945C35.539,38.458,37.302,40.624,37.602,40.92C37.725,41.046,37.351,40.673,37.602,40.92z"/>
<linearGradient id="SVGID_3_" gradientUnits="userSpaceOnUse" x1="34.3921" y1="44.8311" x2="34.3921" y2="44.8311" gradientTransform="matrix(5.740000e-005 0 0 -5.740000e-005 34.4229 44.8926)">
	<stop  offset="0" style="stop-color:#4F7DBD"/>
	<stop  offset="0.0148" style="stop-color:#4F7DBD"/>
	<stop  offset="1" style="stop-color:#25426B"/>
</linearGradient>
<polygon fill="url(#SVGID_3_)" points="34.392,44.833 34.392,44.831 34.392,44.83 "/>
<linearGradient id="SVGID_4_" gradientUnits="userSpaceOnUse" x1="-533.333" y1="1076.9688" x2="-532.333" y2="1076.9688" gradientTransform="matrix(58.0536 0 0 -58.0536 30992.7813 62568.7656)">
	<stop  offset="0" style="stop-color:#4F7DBD"/>
	<stop  offset="0.0148" style="stop-color:#4F7DBD"/>
	<stop  offset="1" style="stop-color:#25426B"/>
</linearGradient>
<path fill="url(#SVGID_4_)" d="M36.036,44.638c-0.534,0-1.074-0.057-1.608-0.182c-0.014,0.124-0.026,0.25-0.036,0.375
	c5.202,4.88,6.652,0.127,4.369,5.565c-0.248,0.595-0.395,1.201-0.457,1.813c1.883-0.439,3.985-0.805,5.225-1.2l0.013-0.123
	c0.231-0.08,1.127-0.08,1.077-0.64l0.044-0.117c0.066,0,0.199,0.249,0.383,0.359l0.251,0.27h0.063c0.188,0,0.364-0.115,0.528-0.067
	c0.235-0.046,0.485-0.262,0.742-0.576c0.185-0.226,0.317-0.438,0.411-0.58c-1.504-2.061-2.552-5.186-3.186-8.171
	C41.924,42.88,39.026,44.638,36.036,44.638z"/>
<linearGradient id="SVGID_5_" gradientUnits="userSpaceOnUse" x1="-533.333" y1="1076.9707" x2="-532.333" y2="1076.9707" gradientTransform="matrix(57.3192 0 0 -57.3192 30601.25 61780.8203)">
	<stop  offset="0" style="stop-color:#4F7DBD"/>
	<stop  offset="0.0148" style="stop-color:#4F7DBD"/>
	<stop  offset="1" style="stop-color:#25426B"/>
</linearGradient>
<path fill="url(#SVGID_5_)" d="M34.278,47.423c0.088,1.591,0.641,3.248,1.41,4.855c-0.961-2.167-1.319-3.897-1.422-5.141
	L34.278,47.423z"/>
<linearGradient id="SVGID_6_" gradientUnits="userSpaceOnUse" x1="-533.333" y1="1076.9717" x2="-532.333" y2="1076.9717" gradientTransform="matrix(55.464 0 0 -55.464 29612.4414 59774.0547)">
	<stop  offset="0" style="stop-color:#4F7DBD"/>
	<stop  offset="0.0148" style="stop-color:#4F7DBD"/>
	<stop  offset="1" style="stop-color:#25426B"/>
</linearGradient>
<path fill="url(#SVGID_6_)" d="M48.579,41.313c0.159-0.255,0.336-0.504,0.343-0.756c-0.117,0.232-0.276,0.42-0.443,0.604
	L48.579,41.313z"/>
<linearGradient id="SVGID_7_" gradientUnits="userSpaceOnUse" x1="-533.333" y1="1076.9707" x2="-532.333" y2="1076.9707" gradientTransform="matrix(56.947 0 0 -56.947 30402.9609 61371.875)">
	<stop  offset="0" style="stop-color:#4F7DBD"/>
	<stop  offset="0.0148" style="stop-color:#4F7DBD"/>
	<stop  offset="1" style="stop-color:#25426B"/>
</linearGradient>
<path fill="url(#SVGID_7_)" d="M47.479,39.77c0.136,0.924,0.397,3.574,0.475,3.7l0.009,0.006c0.047,0,0.033-0.757,0.02-1.514
	c-0.009-0.758-0.02-1.516,0.028-1.516l0.008,0.007c0.116,0.184,0.235,0.368,0.356,0.551c0.121-0.265,0.235-0.532,0.343-0.803
	C48.305,40.069,47.893,39.926,47.479,39.77z"/>
<linearGradient id="SVGID_8_" gradientUnits="userSpaceOnUse" x1="-533.333" y1="1076.9707" x2="-532.333" y2="1076.9707" gradientTransform="matrix(0 -37.2587 -37.2587 0 40198.707 -19807.377)">
	<stop  offset="0" style="stop-color:#4770A8"/>
	<stop  offset="0.2562" style="stop-color:#25426B"/>
	<stop  offset="1" style="stop-color:#25426B"/>
</linearGradient>
<path fill="url(#SVGID_8_)" d="M74.935,26.668c0.029,2.497,0.005,0.023,0.005,0.023c0.137,0.462,0.119,1.142,0.2,1.64
	c-0.132,2.234-1.054,6.9-5.747,12.842c0,0-4.486,3.51-7.072,10.748c0.16,0.572,0.538,1.118,0.84,1.586
	c0.562,0.873,1.188,1.633,2.087,2.172c1.469,0.884,3.061,1.213,4.707,1.578c-0.153,0.059-0.376,0.047-0.509,0.119
	c-0.203,0.105-0.299,0.364-0.404,0.56c-0.147,0.271-0.138,0.471-0.077,0.686c4.736-3.251,12.409-8.619,13.043-9.265l0.04-0.063
	c-0.041-0.014-0.229-0.091-0.521-0.215c-0.63-0.269-1.729-0.752-2.748-1.248c-1.257-0.609-2.389-1.233-2.364-1.491
	c0.016-0.2-0.251-0.217-0.656-0.217h-0.135h-0.139c-0.721,0-1.7-0.043-2.313-0.792c1.125-2.125,1.916-4.832,2.404-7.379
	c0.527-2.74,0.701-5.295,0.563-6.735C75.817,27.914,74.935,26.668,74.935,26.668"/>
<linearGradient id="SVGID_9_" gradientUnits="userSpaceOnUse" x1="-533.333" y1="1076.9727" x2="-532.333" y2="1076.9727" gradientTransform="matrix(57.6391 0 0 -57.6391 30772.0234 62115.7344)">
	<stop  offset="0" style="stop-color:#4F7DBD"/>
	<stop  offset="0.0148" style="stop-color:#4F7DBD"/>
	<stop  offset="1" style="stop-color:#25426B"/>
</linearGradient>
<path fill="url(#SVGID_9_)" d="M69.814,40.154c0.091,0.188,0.165,0.381,0.229,0.579c0.284-0.435,0.547-0.868,0.792-1.296
	c-0.416,0.028-0.863,0.083-1.343,0.157C69.604,39.778,69.716,39.96,69.814,40.154z"/>
<linearGradient id="SVGID_10_" gradientUnits="userSpaceOnUse" x1="-533.333" y1="1076.9707" x2="-532.333" y2="1076.9707" gradientTransform="matrix(0 -37.2072 -37.2072 0 40120.9141 -19777.2305)">
	<stop  offset="0.0049" style="stop-color:#4770A8"/>
	<stop  offset="1" style="stop-color:#25426B"/>
</linearGradient>
<path fill="url(#SVGID_10_)" d="M48.835,53.469l-0.12-0.213L48.835,53.469 M43.123,29.365c0,0-0.536,0.636-0.555,2.203
	c-0.009,0.621,0.669,1.375,0.578,2.313c-0.151,1.567,0.068,4.455,0.709,7.466c0.634,2.985,1.682,6.092,3.186,8.153
	c-0.094,0.141-0.227,0.319-0.411,0.545c-0.257,0.313-0.507,0.459-0.742,0.505l-0.171,0.016c-0.152,0-0.291-0.037-0.421-0.089
	l-0.251-0.129c-0.184-0.11-0.316-0.218-0.383-0.218l-0.044,0.117c0.05,0.56-0.846,0.56-1.077,0.64l-0.013,0.123
	c0.127,0.945,2.413,7.103,6.857,10.318c0.114-0.311,0.196-0.546,0-0.907c-0.106-0.196-0.203-0.454-0.402-0.561
	c-0.137-0.073-0.358-0.06-0.509-0.117c1.646-0.367,3.235-0.695,4.704-1.58c0.897-0.541,1.525-1.3,2.088-2.173
	c0.286-0.442,0.637-0.954,0.814-1.493c-0.123-0.334-0.293-0.771-0.361-1.202c-0.47-1.319-1.06-2.671-1.806-3.967l-0.108-0.185
	l-0.125-0.212c-0.396-0.653-0.834-1.291-1.316-1.899l-0.07-0.089c-0.334-0.418-0.692-0.822-1.072-1.209
	c-0.249-0.256-0.492-0.513-0.73-0.771l-0.058-0.059c-0.598-0.653-1.152-1.309-1.661-1.962l-0.016-0.02
	c-0.42-0.538-0.812-1.076-1.178-1.61l-0.101-0.152l-0.104-0.156c-0.121-0.184-0.24-0.367-0.356-0.551l-0.008-0.007
	c-0.048,0-0.037,0.758-0.028,1.516c0.014,0.757,0.027,1.514-0.02,1.514l-0.009-0.006c-0.077-0.126-0.339-2.776-0.475-3.7
	c-0.026-0.175-0.044-0.287-0.059-0.312C45.145,35.503,43.098,31.867,43.123,29.365"/>
<linearGradient id="SVGID_11_" gradientUnits="userSpaceOnUse" x1="-533.1118" y1="1076.665" x2="-532.7217" y2="1077.3408" gradientTransform="matrix(30.3556 0 0 30.3556 16206.3037 -32622.5762)">
	<stop  offset="0.1527" style="stop-color:#5B8FD6"/>
	<stop  offset="0.4778" style="stop-color:#4770A8"/>
	<stop  offset="1" style="stop-color:#25426B"/>
</linearGradient>
<path fill="url(#SVGID_11_)" d="M44.713,66.3c-1.212-1.104-2.38-2.083-3.25-3.495c-0.556-0.901-0.804-1.788-1.398-2.599
	c-0.733-1.005-1.779-1.772-2.363-2.902c-0.521-1.008-1.729-3.688-3.305-3.462c-1.399,1.296-3.312,1.379-3.833,3.541
	c-0.198,0.82,0.111,1.558-0.289,2.366c-0.371,0.753-1.163,1.187-1.436,2.017c-0.257,0.777,0.189,1.599-0.027,2.335
	c-0.233,0.781-0.836,0.905-1.412,1.399c-0.423,0.365-0.675,0.653-0.79,0.88c-0.885-0.039-1.772,0-2.656,0.129
	c-1.863,0.274-3.263,1.749-5.221,1.923l1.562,1.684c1.003,1.877,1.644,3.275,1.409,5.442c-0.304,2.797-2.613,3.626-5.029,4.697
	c1.685,0.712,4.125,1.352,5.522,2.57c1.361,1.187,2.27,2.133,4.271,2.307c2.055,0.176,1.341-0.553,2.072-1.779
	c0.584-0.973,1.414-0.422,2.179-0.909c0.865-0.546,1.895-2.456,2.527-3.281c0.811-1.051,0.973-2.798,1.917-3.64
	c0.95-0.84,2.304-0.22,3.255-0.834c0.486-0.315,0.826-1.248,1.159-1.709c0.609-0.837,1.313-1.593,2.02-2.351
	c1.496-1.612,3.191-2.208,5.434-1.245C46.054,68.475,45.739,67.237,44.713,66.3"/>
<linearGradient id="SVGID_12_" gradientUnits="userSpaceOnUse" x1="-533.333" y1="1076.9707" x2="-532.333" y2="1076.9707" gradientTransform="matrix(53.9231 0 0 53.9231 28792.5703 -58013.6563)">
	<stop  offset="0" style="stop-color:#4F7DBD"/>
	<stop  offset="0.0148" style="stop-color:#4F7DBD"/>
	<stop  offset="1" style="stop-color:#25426B"/>
</linearGradient>
<path fill="url(#SVGID_12_)" d="M83.629,52.864c0.425-1.08,0.725-2.163,0.788-3.218c0.011-0.181,0.016-0.369,0.016-0.561
	c-0.002-1.089-0.151-2.313-0.259-3.34l-0.021-0.143c-0.46,0.072-0.951,0.111-1.482,0.111c-2.262,0-5.182-0.729-8.883-2.874
	c-0.509,2.468-1.33,4.962-2.481,7.047l-0.656,0.398c-0.281,0.219-0.604,0.376-0.955,0.429c-1.306,0.279-2.609,0.559-3.918,0.827
	c-4.901,1.012-9.868,1.936-14.89,2.037c-1.551,0.031-2.417-0.761-3.159-1.551c-0.982-1.046-1.751-2.091-3.612-1.239
	c-1.94,0.891-8.96,1.57-9.72,3.054c-0.406,0.789-0.992,3.139-0.724,3.892c0.616,1.707,3.434,0.686,4.388,2.223
	c2.75,4.432,6.17,8.585,10.162,11.954c3.272,2.766,7.364,5.319,11.811,5.163c6.253-0.223,10.861-5.915,15.652-9.274
	c2.21-1.551,4.359-3.101,6.119-5.176c2.341-2.765,4.029-6.024,5.726-9.204C86.456,53.526,84.872,53.306,83.629,52.864z"/>
<linearGradient id="SVGID_13_" gradientUnits="userSpaceOnUse" x1="-533.333" y1="1076.9688" x2="-532.333" y2="1076.9688" gradientTransform="matrix(9.1281 0 0 -9.1281 4915.1313 9871.0947)">
	<stop  offset="0" style="stop-color:#4770A8"/>
	<stop  offset="0.4286" style="stop-color:#25426B"/>
	<stop  offset="1" style="stop-color:#25426B"/>
</linearGradient>
<path fill="url(#SVGID_13_)" d="M53.744,45.949v0.146l-0.059,0.16c-0.096,0.263-0.205,0.521-0.321,0.776
	c0.482,0.608,0.92,1.247,1.316,1.899c0.002-0.119,0.003-0.235,0.003-0.348c0-0.644-0.046-1.199-0.078-1.519
	C54.251,46.674,53.969,46.304,53.744,45.949 M49.588,31.957c-0.785,0.902-0.278,2.695-0.164,3.712
	c0.063,0.597,0.139,1.248,0.059,1.848c-0.088,0.634-0.327,1.308-0.502,1.924c-0.075,0.256-0.164,0.509-0.264,0.759
	c-0.107,0.271-0.222,0.539-0.343,0.803l0.104,0.156c0.167-0.184,0.326-0.372,0.443-0.604c-0.007,0.252-0.184,0.501-0.343,0.756
	c0.366,0.535,0.758,1.072,1.178,1.61l0.064-0.127l-0.049,0.147c0.509,0.653,1.063,1.309,1.661,1.962
	c0.145-0.245,0.287-0.489,0.432-0.734l0.052-0.089c-0.131,0.303-0.268,0.599-0.426,0.882c0.238,0.258,0.481,0.515,0.73,0.771
	c0.38,0.387,0.738,0.791,1.072,1.209c0.133-0.339,0.267-0.693,0.445-1.004c-1.273-2.018-0.729-3.526-1.397-5.069
	c-0.746-1.728-0.604-3.429-0.551-4.432c-0.059-0.257-0.107-0.506-0.142-0.692c-0.075-0.045-0.168-0.105-0.274-0.181
	c-0.531-0.373-1.004-1.025-1.297-1.683c-0.188-0.427-0.52-1.782-0.52-1.782L49.588,31.957"/>
<linearGradient id="SVGID_14_" gradientUnits="userSpaceOnUse" x1="-533.334" y1="1076.9707" x2="-532.3335" y2="1076.9707" gradientTransform="matrix(2.3709 0 0 -2.3709 1314.2222 2590.1235)">
	<stop  offset="0" style="stop-color:#304C73"/>
	<stop  offset="0.1773" style="stop-color:#304C73"/>
	<stop  offset="0.6995" style="stop-color:#4E7DC0"/>
	<stop  offset="0.9951" style="stop-color:#4880CF"/>
	<stop  offset="1" style="stop-color:#4880CF"/>
</linearGradient>
<path fill="url(#SVGID_14_)" d="M51.94,37.161c0,0,0.191-0.976-0.544-1.577c-0.738-0.602-1.457-1.621-1.577-2.584
	c0,0-0.342,3.126,0.54,4.497c0.879,1.372,0.104,2.254,1.604,3.015C51.964,40.512,52.342,38.938,51.94,37.161z"/>
<linearGradient id="SVGID_15_" gradientUnits="userSpaceOnUse" x1="84.6113" y1="84.2676" x2="98.7028" y2="59.8605">
	<stop  offset="0.0493" style="stop-color:#304C73"/>
	<stop  offset="0.9951" style="stop-color:#4880CF"/>
	<stop  offset="1" style="stop-color:#4880CF"/>
</linearGradient>
<path fill="url(#SVGID_15_)" d="M109.508,77.592c0,0-0.039-0.183-0.121-0.497c-0.173,0.135-1.596,1.185-3.59,1.236L107,77.329
	l-4.583-6.534l-0.985-0.23c0.324-0.409,0.665-0.738,0.965-0.948c1.442-1.011,6.495,6.674,6.973,7.408
	c-0.563-2.195-2.845-9.938-6.632-8.483c-0.697,0.268-1.304,0.634-1.831,1.06l0.504-0.609c-2.053-0.206-3.521-1.941-5.475-2.262
	c-0.925-0.152-1.856-0.199-2.783-0.152c-0.121-0.269-0.386-0.606-0.828-1.035c-0.601-0.582-1.236-0.728-1.479-1.645
	c-0.231-0.867,0.239-1.833-0.031-2.75c-0.287-0.976-1.117-1.485-1.506-2.371c-0.419-0.952-1.778-4.371-1.778-5.357
	c0-0.051-0.181-0.004-0.474,0.042c-0.664,0.108-1.907,0.215-2.928-0.846c-1.655-0.265-2.057,2.097-2.607,3.285
	c-0.611,1.329-1.708,2.23-2.479,3.413c-0.622,0.952-0.881,1.997-1.464,3.056c-0.913,1.662-2.136,2.812-3.406,4.113
	c-1.079,1.101-1.408,2.558-2.43,3.625c2.352-1.132,4.126-0.433,5.696,1.465c0.735,0.892,1.478,1.781,2.117,2.768
	c0.35,0.54,0.704,1.637,1.214,2.007c0.999,0.723,2.42-0.005,3.41,0.983c0.995,0.989,1.166,3.045,2.014,4.281
	c0.663,0.97,1.74,3.218,2.648,3.861c0.802,0.571,1.671-0.076,2.285,1.069c0.769,1.44,0.019,2.3,2.174,2.091
	c2.098-0.203,3.047-1.315,4.475-2.711c1.468-1.436,8.846-6.437,10.614-7.274c-0.095-0.047-0.203-0.081-0.311-0.116
	C108.963,78.063,109.508,77.592,109.508,77.592z"/>
<linearGradient id="SVGID_16_" gradientUnits="userSpaceOnUse" x1="-533.333" y1="1076.9697" x2="-532.333" y2="1076.9697" gradientTransform="matrix(3.5798 -0.442 -0.442 -3.5798 2450.3662 3657.2722)">
	<stop  offset="0" style="stop-color:#304C73"/>
	<stop  offset="0.1773" style="stop-color:#304C73"/>
	<stop  offset="0.6995" style="stop-color:#4E7DC0"/>
	<stop  offset="0.9951" style="stop-color:#4880CF"/>
	<stop  offset="1" style="stop-color:#4880CF"/>
</linearGradient>
<path fill="url(#SVGID_16_)" d="M68.094,33.398l-0.01,0.057l-0.045,0.194c-0.407,1.606-1.926,2.561-1.926,2.561v-0.003l-0.047,0.034
	l-0.099,0.081l-0.029,0.049l0.009-0.033L65.78,36.5c-0.069,0.133-0.128,0.267-0.171,0.4c0.338,1.608,0.184,3.492,0.184,3.492
	c-0.002,0.259-0.029,0.544-0.067,0.848c0.076,0.207,0.129,0.321,0.129,0.321c2.167-1.085,0.879-1.873,2.031-3.489l0.048-0.074
	l0.019-0.025c0.188-0.32,0.313-0.665,0.396-1.016c0.115-0.536,0.133-1.115,0.101-1.653c-0.015-0.232-0.033-0.456-0.061-0.667
	C68.273,33.908,68.094,33.398,68.094,33.398"/>
<linearGradient id="SVGID_17_" gradientUnits="userSpaceOnUse" x1="-533.333" y1="1076.9707" x2="-532.333" y2="1076.9707" gradientTransform="matrix(31.7902 0 0 -31.7902 16982.3203 34301.7656)">
	<stop  offset="0.0739" style="stop-color:#4F7DBD"/>
	<stop  offset="0.7537" style="stop-color:#5689CF"/>
</linearGradient>
<path fill="url(#SVGID_17_)" d="M35.023,57.052c0.609-2.128-0.415-5.042-1.876-6.582c-1.186-1.249-3.694-1.983-4.441-3.613
	c-0.492-1.082,0.212-2.767,0.203-3.942c-0.017-2.231-1.055-4.073-1.333-6.203c2.105,2.125,4.76,3.23,7.616,4.134
	c0.162,0.843-0.605,1.756-0.688,2.618c-0.121,1.227-0.292,2.735-0.225,3.96c0.209,3.755,3.003,7.876,5.122,10.86
	c2.924,4.119,7.427,8.038,11.8,10.517c1.244,0.707,2.433,1.408,3.614,2.203c1.507,1.018,1.356,2.02,1.104,3.798
	c-0.902,6.375,1.662,11.863,3.448,17.835c-4.373-8.17-13.003-13.012-18.488-20.322c-2.25-3.001-3.77-6.921-5.027-10.419
	c-0.559-1.548-1.166-3.186-1.276-4.843H35.023"/>
<linearGradient id="SVGID_18_" gradientUnits="userSpaceOnUse" x1="-533.3335" y1="1076.9727" x2="-532.3335" y2="1076.9727" gradientTransform="matrix(31.7892 0 0 -31.7892 17013.5664 34300.7188)">
	<stop  offset="0" style="stop-color:#4F7DBD"/>
	<stop  offset="0.0148" style="stop-color:#4F7DBD"/>
	<stop  offset="1" style="stop-color:#25426B"/>
</linearGradient>
<path fill="url(#SVGID_18_)" d="M83.671,57.052c-0.608-2.128,0.414-5.042,1.876-6.582c1.187-1.249,3.698-1.983,4.441-3.613
	c0.493-1.082-0.209-2.767-0.203-3.942c0.018-2.231,1.058-4.073,1.333-6.203c-2.106,2.125-4.76,3.23-7.613,4.134
	c-0.162,0.843,0.604,1.756,0.687,2.618c0.121,1.227,0.294,2.735,0.227,3.96c-0.211,3.755-3.006,7.876-5.123,10.86
	c-2.918,4.119-7.428,8.038-11.798,10.517c-1.243,0.707-2.434,1.408-3.617,2.203c-1.507,1.018-1.356,2.02-1.103,3.798
	c0.903,6.375-1.661,11.863-3.446,17.835c4.372-8.17,13.003-13.012,18.487-20.322c2.25-3.001,3.771-6.921,5.031-10.419
	c0.557-1.548,1.161-3.186,1.273-4.843H83.671"/>
<linearGradient id="SVGID_19_" gradientUnits="userSpaceOnUse" x1="-533.3438" y1="1076.9863" x2="-532.3438" y2="1076.9863" gradientTransform="matrix(-16.3129 0 0 -16.3129 -8634.001 17607.0156)">
	<stop  offset="0.2808" style="stop-color:#629DF2"/>
	<stop  offset="0.9951" style="stop-color:#4880CF"/>
	<stop  offset="1" style="stop-color:#94BEFA"/>
</linearGradient>
<path fill="url(#SVGID_19_)" d="M65.53,32.139C65.53,32.246,65.53,32.461,65.53,32.139 M65.53,32.047
	C65.369,32.644,65.53,32.247,65.53,32.047 M65.533,31.985C65.533,32.025,65.533,32.096,65.533,31.985 M65.55,31.972
	C65.528,32.055,65.517,32.325,65.55,31.972 M65.632,31.563c-0.101,0.456-0.078,0.317-0.078,0.317
	C65.555,31.881,65.568,32.003,65.632,31.563 M65.17,30.442C65.13,31.154,65.198,30.62,65.17,30.442 M58.829,30.208
	C58.864,30.378,58.862,30.319,58.829,30.208 M59.413,29.711L59.413,29.711 M58.571,30.804l-0.021-0.046L58.571,30.804
	 M54.692,27.156c-0.252,0.005-0.106,0.109,0.428,0.313c-0.276-0.07-1.015-0.605-0.365-0.132c-0.201-0.036-0.406-0.04-0.608-0.012
	c1.228,0.169-0.149-0.014-0.438,0.34c0.127-0.039,0.254-0.079,0.38-0.118l-0.087,0.028l-0.615,0.905l-0.17,0.13l-0.315,0.286
	l0.128-0.043c0,0-0.272,0.162-0.356,0.325c0.378-0.336-0.098,0.179-0.098,0.179l-0.114,0.148c0.001,0.002,0.47-0.238-0.019,0.114
	c0.38-0.237-0.038,0.498-0.049,0.589c-0.202,0.59,0.049,0.213,0.049,0.213l-0.359,0.577c0.011,0.005-0.4-0.005,0.374-0.175
	c-0.693,1.313-0.146,0.231-0.067,0.581c-0.423,0.468-0.264,2.008-0.264,2.008c0.007,0.011,0.382-0.468-0.032,0.225
	c0.5-0.196,0.242-0.124,0.096,0.084l0.15-0.081c-0.217,0.133-0.034,0.103-0.034,0.103c0.001,0.001-0.308,0.015,0.03,0.015
	c-2.321,3.989,0.327,0.229-0.496,0.805c0.346,0.45,0.096,0.193,0.096,0.193l0.028,0.14c-0.007,0.01-0.001,0.709-0.166-0.01
	c0.007,0.423,0.194,1.362,0.194,1.362s-0.109-0.376-0.243-0.529c0.039,0.301,0.123,0.903,0.123,0.903v0.536
	c0,0-0.097-0.207,0.011,0.239c-0.17-0.368-0.259-0.761-0.273-1.177c-0.869,4.909,1.933,13.173,8.132,13.173
	c5.3,0,6.823-9.1,6.598-12.894c-0.104,0.359-0.228,0.71-0.371,1.056c-0.06-0.549-0.006-1.083,0.161-1.604
	c-0.466,1.181-0.274-0.5-0.306-0.972c-0.072,0.158-0.105,0.32-0.097,0.487c-0.021-0.43-0.017-1.468-0.017-1.468l0.021-0.213
	c0.006,0.002,0.037,0.063,0.238-0.982c-0.817,2.309-0.691,0.174-0.495-0.443c0-0.27,0.173-2.233-0.262-0.859
	c0.139-0.786-0.063-0.442-0.063-0.442l-1.042-1.956c0,0-1.503-0.553-1.248-0.532c0.409-0.013-2.391,0.018,0.17-0.308
	c-0.642,0.001-1.48,0.61-1.803,1.079c0.23-0.563-0.252,0.134-0.252,0.134c-0.003-0.001-0.046-0.152-0.432,0.58
	c0.092-0.239,0.211-0.462,0.357-0.672c-0.596,0.218-1.372,1.628-1.8,0.872c-0.255,0.632-0.504-0.07-0.6-0.17
	c-0.047,1.317-0.543-0.701-0.825-1.175c0,0.369,0.078,0.719,0.237,1.052c-0.289-0.361-0.495-0.77-0.616-1.224
	c0.569,2.355-0.254-1.563-0.221,0.376c-0.088-0.418-0.216-0.823-0.381-1.215c0.024,0.242,0.073,0.727,0.073,0.727
	c-0.002,0-0.25-0.567-0.428-0.826c0.022,0.166,0.05,0.331,0.085,0.494l-0.007-0.036c0.156,0.098-0.432-0.728-0.527-0.135
	C55.678,27.684,55.272,27.156,54.692,27.156"/>
<linearGradient id="SVGID_20_" gradientUnits="userSpaceOnUse" x1="-533.333" y1="1076.9707" x2="-532.3335" y2="1076.9707" gradientTransform="matrix(6.3707 0 0 6.3707 3461.3889 -6819.7036)">
	<stop  offset="0" style="stop-color:#1C2C42"/>
	<stop  offset="1" style="stop-color:#25426B"/>
</linearGradient>
<path fill="url(#SVGID_20_)" d="M69.814,40.154c-0.099-0.194-0.211-0.376-0.322-0.561c-0.102-0.168-0.197-0.337-0.273-0.518
	c-0.054-0.123-0.095-0.248-0.132-0.375c-0.075-0.327-0.147-0.666-0.219-1.002c-0.025-0.138-0.05-0.274-0.075-0.41
	c-0.044-0.221-0.09-0.492-0.162-0.763l0.006,0.1c-0.157-0.774-0.316-1.561-0.48-2.353c0.137,1.474-0.317,2.681-0.675,3.979
	c-0.729,1.281-0.081,2.128-1.523,2.859c0,0-0.027-0.113-0.06-0.313c-0.277,1.526-0.926,3.494-1.202,4.259
	c-0.428,1.187-0.653,1.412-1.017,1.745l-0.005,0.276c0,0.551,0.061,1.017,0.153,1.424c0.628-0.981,1.354-1.916,2.189-2.77
	c1.628-1.658,2.955-3.346,4.025-5C69.979,40.535,69.905,40.342,69.814,40.154z M67.359,38.491l0.117-0.218
	c-0.11,0.406-0.202,0.826-0.271,1.264l-0.145-0.027C67.109,39.119,67.238,38.758,67.359,38.491z"/>
<linearGradient id="SVGID_21_" gradientUnits="userSpaceOnUse" x1="-533.333" y1="1076.9766" x2="-532.333" y2="1076.9766" gradientTransform="matrix(0.0682 0 0 0.0682 88.3578 -36.5813)">
	<stop  offset="0" style="stop-color:#1C2C42"/>
	<stop  offset="1" style="stop-color:#25426B"/>
</linearGradient>
<path fill="url(#SVGID_21_)" d="M51.993,36.698l0.008,0.079C52.142,37.328,51.994,36.698,51.993,36.698z"/>
<linearGradient id="SVGID_22_" gradientUnits="userSpaceOnUse" x1="-533.333" y1="1076.9688" x2="-532.333" y2="1076.9688" gradientTransform="matrix(0.0367 0 0 0.0367 75.9135 -10.6599)">
	<stop  offset="0" style="stop-color:#1C2C42"/>
	<stop  offset="1" style="stop-color:#25426B"/>
</linearGradient>
<polygon fill="url(#SVGID_22_)" points="56.359,28.865 56.344,28.812 56.368,28.903 "/>
<linearGradient id="SVGID_23_" gradientUnits="userSpaceOnUse" x1="-533.333" y1="1076.9688" x2="-532.333" y2="1076.9688" gradientTransform="matrix(0.0692 0 0 0.0692 104.9869 -40.4535)">
	<stop  offset="0" style="stop-color:#1C2C42"/>
	<stop  offset="1" style="stop-color:#25426B"/>
</linearGradient>
<path fill="url(#SVGID_23_)" d="M68.087,33.94c0.023,0.112,0.046,0.222,0.069,0.333c-0.014-0.143-0.016-0.28-0.042-0.428
	L68.087,33.94z"/>
<linearGradient id="SVGID_24_" gradientUnits="userSpaceOnUse" x1="-533.3325" y1="1076.9707" x2="-532.3325" y2="1076.9707" gradientTransform="matrix(18.5366 0 0 18.5366 9935.7002 -19932.7188)">
	<stop  offset="0" style="stop-color:#406396"/>
	<stop  offset="0.4975" style="stop-color:#25426B"/>
	<stop  offset="1" style="stop-color:#25426B"/>
</linearGradient>
<path fill="url(#SVGID_24_)" d="M59.61,22.704c-0.326,0-0.746,0.463-0.979,0.631c0.636-0.875-2.388,0.412-2.454,0.388
	c-0.061-0.021,0.114-0.253-0.569,0.16c-0.845-0.451-3.463,2.276-4.35,3c0.471,0-0.754,1.807-0.996,2.486
	c-0.273,0.769-0.861,2.092-0.665,2.972c0.238,1.059,0.457,2.099,1.187,2.89c0.729,0.79,0.693,1.688,1.38,2.408
	c-0.037-0.128-0.118-0.379-0.118-0.379l-0.044-0.482c-0.039-0.152-0.1-0.387-0.19-0.755c0.157,0.144,0.322,0.507,0.322,0.507
	s-0.339-0.904-0.378-1.325c0.229,0.708,0.173,0,0.173,0l-0.035-0.137c0-0.002,0.27,0.248-0.112-0.188
	c0.289-0.123,1.047-0.784,0.271-0.711c0.103-0.052,0.15-0.077,0.255-0.128c-0.398,0.155-0.207,0.036,0.049-0.104l-0.177,0.085
	l0.249-0.215c-0.049,0.02-0.151,0.062-0.346,0.134c0.143-0.141,0.439-0.42,0.439-0.42c0-0.002,0.004-1.685,0.205-1.851
	c-0.077-0.352-0.732,0.705,0.097-0.579c-0.518,0.427-0.313,0.032-0.313,0.032l0.17-0.359l0.016-0.267
	c0.002,0,0.112-0.426,0.245-0.671c-0.344,0.203-0.079-0.141-0.079-0.141l0.034-0.146l0.05-0.056c0.103-0.088,0.223-0.19,0.223-0.19
	l-0.038-0.026l-0.003-0.002c-0.005-0.026,0.033-0.077,0.217-0.188l-0.01,0.008l0.151-0.102l0.421-0.765
	c0.141-0.075,0.108-0.027-0.28,0.061c0.222-0.3,1.622-0.068,0.377-0.284c0.197-0.017,0.396-0.009,0.608,0.017
	c-0.738-0.412,0.104,0.051,0.393,0.103c-1.243-0.803,0.631,0.224,0.865,0.597c-0.018-0.445,0.359-0.06,0.475,0.101
	c-0.038-0.145-0.078-0.289-0.11-0.432c0.695,1.415,0.352,0.766,0.335,0.098c0.18,0.43,0.3,0.922,0.374,1.441
	c-0.078-2.331,0.593,2.576,0.162-0.423c0.095,0.581,0.215,1.155,0.371,1.704c-0.074-0.472-0.106-0.946-0.084-1.43
	c0.188,0.666,0.26,3.477,0.469,1.753c0.056,0.155,0.138,1.136,0.449,0.342c0.257,1.047,1.33-0.958,2.027-1.381
	c-0.203,0.324-0.38,0.666-0.52,1.005c0.202-0.33,0.405-0.729,0.623-1.018c0.1-0.133,0.519-1.33,0.262-0.116
	c0.113-0.181,0.22-0.401,0.334-0.537c0.16-0.188,0.525-0.501,0.902-0.755c0.346,0.005,0.852-0.036,0.65-0.006
	c-0.215,0.003,1.329,0.58,1.259,0.514c0.445,0.443,1.031,2.288,1.11,1.799c-0.039,1.481,0.291-0.674,0.261,1.269l0.019-0.074
	c-0.014,0.115-0.005,0.095,0.003-0.017c0.028-0.137,0.057-0.273,0.091-0.404c-0.003,0.262-0.113,0.548-0.118,0.835
	c0.006-0.363-0.682,4.021,0.456,0.514c-0.091,0.406-0.279,1.228-0.279,1.228l-0.177,0.487c0.004,0.001-0.634,2.244,0.27,0.767
	c0.031,0.489-0.11,2.21,0.351,0.898c-0.162,0.568-0.171,1.115-0.062,1.646c0.026-0.535,0.417-1.526,0.715-2.085
	c-0.053,0.132-0.137,0.393-0.137,0.393c0.019,0.013,1.496-1.802,1.737-2.887c-0.638-3.035-1.402-6.079-2.863-8.447
	C64.274,23.958,61.748,22.704,59.61,22.704z M62.586,28.718l0.209-0.049L62.586,28.718z"/>
<linearGradient id="SVGID_25_" gradientUnits="userSpaceOnUse" x1="-533.333" y1="1076.9727" x2="-532.333" y2="1076.9727" gradientTransform="matrix(8.7016 0 0 -8.7016 4690.3408 9432.9775)">
	<stop  offset="0" style="stop-color:#649DED"/>
	<stop  offset="1" style="stop-color:#6BA9FF"/>
</linearGradient>
<path fill="url(#SVGID_25_)" d="M57.081,54.497c-0.178,0.539-0.528,1.051-0.814,1.493c-0.563,0.874-1.19,1.633-2.088,2.173
	c-1.469,0.884-3.059,1.212-4.704,1.58c0.15,0.058,0.372,0.044,0.509,0.117c0.199,0.106,0.296,0.364,0.402,0.561
	c0.196,0.361,0.114,0.596,0,0.907l-0.092,0.265c-0.173,0.55-0.018,1.08,0.282,1.546c0.138,0.215,0.51,0.875,0.857,0.875h0.013
	c-0.003-0.166-0.007-0.337-0.045-0.501c-0.043-0.187-0.228-0.404-0.238-0.59c-0.005-0.134,0.036-0.186,0.103-0.186
	c0.211,0,0.676,0.492,0.782,0.643c0.315,0.458,0.436,1.028,0.766,1.485c0.339,0.467,0.766,0.89,1.157,1.315
	c-0.656-0.18-1.283-0.47-1.951-0.634c0.015,0.926,0.381,1.334,1.186,1.735c0.312,0.155,0.633,0.243,0.957,0.357
	c0.556,0.2,1.022,0.548,1.541,0.822c0.254,0.134,0.479,0.2,0.677,0.2l0.188-0.022c0.052-0.669,0.099-1.317,0.149-1.926
	c0.041-0.497,0.075-1.001,0.104-1.509l0.002-0.034v0.012c0.104-1.811,0.144-3.68,0.188-5.478c0.052-1.953-0.101-3.463,0.575-4.451
	l-0.182-0.034l-0.073-0.014l-0.022-0.068l-0.15-0.422l0.12-0.042l-0.12,0.042L57.081,54.497"/>
<linearGradient id="SVGID_26_" gradientUnits="userSpaceOnUse" x1="-533.333" y1="1076.9707" x2="-532.333" y2="1076.9707" gradientTransform="matrix(8.7074 0 0 -8.7074 4704.1572 9439.3574)">
	<stop  offset="0.266" style="stop-color:#5B8FD9"/>
	<stop  offset="1" style="stop-color:#6BA9FF"/>
</linearGradient>
<path fill="url(#SVGID_26_)" d="M61.277,54.585c-0.094,0.262-0.185,0.529-0.274,0.801c0.029,4.366,0.469,8.882,0.8,13.152
	l0.021,0.279l0.182,0.021c0.196,0,0.422-0.064,0.674-0.198c0.519-0.274,0.985-0.624,1.543-0.821
	c0.323-0.116,0.643-0.205,0.954-0.358c0.809-0.403,1.175-0.809,1.19-1.735c-0.67,0.162-1.295,0.452-1.956,0.631
	c0.393-0.425,0.819-0.846,1.159-1.314c0.329-0.457,0.448-1.026,0.769-1.486c0.103-0.149,0.569-0.641,0.779-0.641
	c0.068,0,0.111,0.052,0.103,0.185c-0.009,0.185-0.195,0.402-0.234,0.592c-0.042,0.163-0.044,0.333-0.047,0.5l0.012,0.001
	c0.349,0,0.72-0.662,0.857-0.875c0.301-0.465,0.457-0.996,0.281-1.546c-0.06-0.188-0.126-0.341-0.169-0.488
	c-0.061-0.213-0.068-0.413,0.077-0.684c0.105-0.195,0.203-0.455,0.404-0.56c0.135-0.072,0.355-0.06,0.508-0.118
	c-1.646-0.366-3.237-0.695-4.704-1.579c-0.898-0.54-1.527-1.3-2.089-2.173C61.815,55.702,61.438,55.157,61.277,54.585"/>
<linearGradient id="SVGID_27_" gradientUnits="userSpaceOnUse" x1="-533.3335" y1="1077.1357" x2="-532.333" y2="1077.1357" gradientTransform="matrix(8.8499 0 0 -8.8499 4774.1094 9599.3018)">
	<stop  offset="0" style="stop-color:#6BA9FF"/>
	<stop  offset="0.6453" style="stop-color:#588BD1"/>
</linearGradient>
<path fill="url(#SVGID_27_)" d="M62.976,77.558l0.016-0.001c-0.174-1.157-1.034-7.041-1.188-9.018
	c-0.357-4.583-0.835-9.45-0.8-14.109l-0.056-0.584c-0.985-0.063-2.008,0.188-2.94,0.953c-1.153,0.947-0.936,2.623-0.994,4.904
	c-0.055,2.308-0.103,4.738-0.295,7.009c-0.287,3.44-0.473,8.147-1.721,10.647c0.112,0.314,0.272,0.507,0.448,0.617
	c-0.495-0.109-1.072-0.162-1.306,0.431c0.315,0.021,8.304,2.113,8.286,0.7c-0.239,0.023-0.495,0.107-0.754,0.062
	c-0.168-1.307,0.444-1.526,0.931-1.58c-0.021-0.221-0.047-0.44-0.074-0.657l-0.011-0.068"/>
<linearGradient id="SVGID_28_" gradientUnits="userSpaceOnUse" x1="-533.332" y1="1076.9688" x2="-532.332" y2="1076.9688" gradientTransform="matrix(4.4594 0 0 4.4594 2435.2998 -4749.2124)">
	<stop  offset="0" style="stop-color:#649DED"/>
	<stop  offset="1" style="stop-color:#6BA9FF"/>
</linearGradient>
<path fill="url(#SVGID_28_)" d="M57.28,54.672l0.119-0.042c-0.153-0.434-0.457-1.134-0.456-1.684
	c0.002-0.317,0.088-0.561,0.337-0.726c0.353-0.232,0.91-0.281,1.468-0.279c0.266,0,0.529,0.01,0.772,0.01
	c0.115,0,0.224-0.003,0.326-0.008c0.187-0.011,0.378-0.026,0.554-0.026c0.254,0,0.484,0.031,0.649,0.124
	c0.162,0.095,0.278,0.241,0.33,0.54c0.015,0.107,0.023,0.222,0.023,0.339c0.005,0.769-0.37,1.683-0.975,2.067"/>
<linearGradient id="SVGID_29_" gradientUnits="userSpaceOnUse" x1="-533.3335" y1="1076.9707" x2="-532.334" y2="1076.9707" gradientTransform="matrix(0.5301 0 0 -0.5301 342.9081 615.4667)">
	<stop  offset="0" style="stop-color:#4F7DBD"/>
	<stop  offset="0.8424" style="stop-color:#4F7DBD"/>
	<stop  offset="1" style="stop-color:#25426B"/>
</linearGradient>
<path fill="url(#SVGID_29_)" d="M60.206,43.936c0,0-0.116,0.705,0.325,1.423c0,0,0.355-1.25,0.096-1.473
	C60.364,43.665,60.24,43.871,60.206,43.936z"/>
<linearGradient id="SVGID_30_" gradientUnits="userSpaceOnUse" x1="-533.334" y1="1076.9727" x2="-532.3335" y2="1076.9727" gradientTransform="matrix(0.532 0 0 -0.532 340.7019 617.5202)">
	<stop  offset="0" style="stop-color:#4F7DBD"/>
	<stop  offset="0.936" style="stop-color:#4F7DBD"/>
	<stop  offset="1" style="stop-color:#25426B"/>
</linearGradient>
<path fill="url(#SVGID_30_)" d="M57.491,43.942c0,0,0.114,0.707-0.328,1.423c0,0-0.356-1.251-0.095-1.472
	C57.332,43.672,57.457,43.878,57.491,43.942z"/>
<linearGradient id="SVGID_31_" gradientUnits="userSpaceOnUse" x1="-533.333" y1="1076.9697" x2="-532.333" y2="1076.9697" gradientTransform="matrix(0 -24.6532 24.6532 0 -26441.2188 -13062.5205)">
	<stop  offset="0" style="stop-color:#4E7DC0"/>
	<stop  offset="0.2611" style="stop-color:#70ACFF"/>
</linearGradient>
<path fill="url(#SVGID_31_)" d="M118.797,74.54c-0.917-1.133-1.457-1.613-2.411-1.584c-0.953,0.031-3.177-0.153-3.688-0.944
	c-0.509-0.792,1.072-0.727,2.425-2.017c0,0,0.431-0.028,0.836-0.182c0.403-0.153,2.238,0.408,3.755-0.998
	c1.516-1.405-1.377-2.348-4.37-1.648c-2.994,0.699-1.412,0.109-3.762,1.178c-0.536,0.244-0.973,0.418-1.327,0.543
	c-0.375,0.134-0.649,0.1-0.861,0.143c-0.463,0.093-0.589,0.134-0.589,0.134l0.006,0.01l-0.198,0.056
	c-1.4,0.539-2.302,1.021-3.242,0.31c-0.939-0.711-2.059-2.052-2.293-2.722c0,0-0.05-3.754-2.928-5.358l-0.715-0.257
	c0,0-1.669,1.153,0.601,5.474c0,0,0.874,1.884,0.902,2.784c0.028,0.901-1.071,3.382,1.756,6.689c0,0,0.127,1.433,2.798,2.102
	c0,0,2.239,0.865,3.013,0.584c0.774-0.281,1.883,0.474,2.662,0.051c0,0-0.906,1.081-0.311,2.145c0,0-1.648,0.435-1.644,1.985
	c0,0-1.202,0.667-0.567,2.243c0.638,1.577,0.973-0.421,2.326-1.333c1.354-0.911,0.535-0.922,1.88-2.261
	c0.296-0.294,0.467-0.55,0.573-0.788c-0.36,1.867,1.828,2.486,1.828,2.486s0.625-0.085,0.558-2.003
	c-0.069-1.918,0.208-2.511-0.716-3.532c-0.487-0.539-1.024-1.2-1.424-1.71l0.015-0.087c0.681-0.841,1.802-0.665,1.802-0.665
	c0.511,0.664,1.725,0.267,1.725,0.267c1.302,2.736,3.082,1.412,3.082,1.412"/>
<linearGradient id="SVGID_32_" gradientUnits="userSpaceOnUse" x1="-533.3325" y1="1076.9707" x2="-532.3325" y2="1076.9707" gradientTransform="matrix(0 -24.6424 -24.6424 0 26550.8672 -13055.6387)">
	<stop  offset="0" style="stop-color:#4E7DC0"/>
	<stop  offset="0.2611" style="stop-color:#70ACFF"/>
</linearGradient>
<path fill="url(#SVGID_32_)" d="M2.496,75.651c0.917-1.133,1.458-1.613,2.411-1.583c0.953,0.03,3.177-0.153,3.687-0.945
	s-1.07-0.727-2.424-2.017c0,0-0.431-0.027-0.836-0.181c-0.405-0.154-2.238,0.407-3.754-0.998c-1.515-1.405,1.375-2.348,4.369-1.649
	c2.993,0.699,1.412,0.11,3.763,1.179c0.535,0.244,0.973,0.418,1.326,0.544c0.377,0.132,0.651,0.099,0.863,0.141
	c0.462,0.094,0.588,0.134,0.588,0.134l-0.006,0.01l0.198,0.056c1.401,0.539,2.303,1.021,3.243,0.309
	c0.939-0.71,2.058-2.051,2.293-2.722c0,0,0.05-3.754,2.926-5.357l0.715-0.257c0,0,1.669,1.153-0.6,5.474
	c0,0-0.875,1.884-0.902,2.784c-0.028,0.9,1.073,3.381-1.755,6.688c0,0-0.128,1.433-2.798,2.102c0,0-2.241,0.865-3.014,0.584
	c-0.774-0.281-1.882,0.473-2.663,0.051c0,0,0.908,1.08,0.312,2.145c0,0,1.647,0.435,1.645,1.984c0,0,1.202,0.668,0.565,2.244
	c-0.637,1.576-0.972-0.422-2.326-1.333c-1.353-0.911-0.533-0.922-1.879-2.261c-0.295-0.293-0.466-0.549-0.573-0.787
	c0.36,1.867-1.83,2.485-1.83,2.485s-0.625-0.084-0.557-2.003c0.069-1.918-0.207-2.511,0.716-3.532
	c0.488-0.539,1.023-1.2,1.424-1.711l-0.015-0.086c-0.68-0.842-1.801-0.667-1.801-0.667c-0.512,0.665-1.725,0.268-1.725,0.268
	C2.78,79.481,1,78.157,1,78.157"/>
<linearGradient id="SVGID_33_" gradientUnits="userSpaceOnUse" x1="-533.3335" y1="1076.9717" x2="-532.333" y2="1076.9717" gradientTransform="matrix(5.3874 0 0 -5.3874 2926.0483 5838.7217)">
	<stop  offset="0" style="stop-color:#385885"/>
	<stop  offset="1" style="stop-color:#25426B"/>
</linearGradient>
<path fill="url(#SVGID_33_)" d="M57.722,36.88c1.214,1.16-0.571,0.813-0.438,0.886c-0.358-0.028-1.217-0.559-1.482-0.734
	c-0.966-0.638-1.696-0.325-3.043-0.04c0.009-0.492,0.384-0.65,0.756-0.805c0.058-0.308-0.138-1.152,0.369-0.202
	c-0.509-1.121,0.328,0.579,0.015-0.348c0.208-0.017,0.392,0.066,0.551,0.25c-0.881-0.563-0.406-0.272-0.183-0.135
	c-0.589-0.289-0.406-0.339,0.547-0.151c-0.413-0.309,0.475,0.424,0.628,0.501c0.137-0.072,0.072-0.172-0.195-0.303
	c-0.248-0.255,0.854,0.851,0.85,0.779c-0.019-0.225-0.318-0.422-0.397-0.632c0.172,0.451,1.205,1.289,1.7,1.378
	C56.855,36.827,57.478,37.264,57.722,36.88C58.086,37.229,57.442,37.319,57.722,36.88z"/>
<linearGradient id="SVGID_34_" gradientUnits="userSpaceOnUse" x1="-533.333" y1="1076.9717" x2="-532.333" y2="1076.9717" gradientTransform="matrix(0 -2.6379 -2.6379 0 2903.8462 -1369.1123)">
	<stop  offset="0" style="stop-color:#385885"/>
	<stop  offset="1" style="stop-color:#25426B"/>
</linearGradient>
<path fill="url(#SVGID_34_)" d="M65.46,36.491L65.46,36.491 M61.731,36.666L61.731,36.666 M63.938,35.152
	c-0.93,0-1.821,0.858-2.024,1.609c-0.239-0.564-0.612,0.208-1.18,0.415c-0.038-0.005-0.173,0.256-0.434,0.025
	c-0.438,1.59,2.849-0.542,2.8-0.594c0.724-0.464,1.569-0.451,2.359-0.116c-0.539-0.243-0.725-0.543-1.051-0.621
	c0.091-0.481-0.323-0.551-0.416-0.536C64.186,35.209,64.167,35.149,63.938,35.152"/>
</svg>
