<?xml version="1.0" encoding="utf-8"?>
<!-- Generator: Adobe Illustrator 16.0.0, SVG Export Plug-In . SVG Version: 6.00 Build 0)  -->
<!DOCTYPE svg PUBLIC "-//W3C//DTD SVG 1.1//EN" "http://www.w3.org/Graphics/SVG/1.1/DTD/svg11.dtd">
<svg version="1.1" id="Layer_1" xmlns="http://www.w3.org/2000/svg" xmlns:xlink="http://www.w3.org/1999/xlink" x="0px" y="0px"
	 width="120px" height="120px" viewBox="0 0 120 120" enable-background="new 0 0 120 120" xml:space="preserve">
<linearGradient id="SVGID_1_" gradientUnits="userSpaceOnUse" x1="-440.3184" y1="1000.2852" x2="-438.7694" y2="1000.2852" gradientTransform="matrix(0 -42.6992 -42.6992 0 42788.0742 -18702.8047)">
	<stop  offset="0" style="stop-color:#32578C"/>
	<stop  offset="0.7143" style="stop-color:#20385A"/>
	<stop  offset="1" style="stop-color:#20385A"/>
</linearGradient>
<path fill="url(#SVGID_1_)" d="M49.755,91.654c3.947-3.432,7.58-2.532,12.394,1.153c0.165-12.703,9.75-19.478,22.019-17.564
	c-0.833-6.226-3.247-16.435,2.014-21.508c2.655-2.562,6.72-3.08,10.21-3.151c-0.146-7.542,4.078-13.32,9.99-17.54
	c-6.499-0.257-17.338-2.248-23.127,1.703c-4.813,3.286-7.274,7.277-14.183,5.789c-1.057,10.233-2.471,20.593-5.227,30.52
	c-2.885,10.387-10.777,15.066-16.81,23.33c0.562-0.281,1.113-1.21,1.572-1.667"/>
<linearGradient id="SVGID_2_" gradientUnits="userSpaceOnUse" x1="-438.9961" y1="999.9541" x2="-440.3633" y2="999.9541" gradientTransform="matrix(0 -67.2397 -67.2397 0 67300.1406 -29492.3125)">
	<stop  offset="0.2808" style="stop-color:#32578C"/>
	<stop  offset="1" style="stop-color:#1F3759"/>
</linearGradient>
<path fill="url(#SVGID_2_)" d="M9.732,103.146l2.62,3.195c6.296-5.415,13.75,3.25,15.613,11.263
	c1.863-8.013,9.316-16.677,15.616-11.263c0.304-0.42,3.995-10.959,4.201-11.193l3.323-4.17c0,0,1.642-1.962,8.469-8.206
	C66.403,76.528,69.818,41.3,69.818,41.3s4.07,1.283,8.928-1.12c4.857-2.402,2.494-5.925,12.867-6.564
	c4.434-0.274,9.199-0.058,15.515,0.192c4.46-3.186,9.159,6.324,11.177,6.094c-9.673-18.957-37.216-9.985-50.564-4.333
	c-0.982-2.046-6.637-11.238-11.917-9.749c5.417,2.573,9.109,10.243,9.937,13.245c4.748,21.858-9.477,44.212-15.854,45.994
	l-0.738-1.348c-2.178,2.144-4.183,2.205-5.479-0.586c-0.714-1.734,0.587-4.554,1.013-5.252l0.004-0.003
	c0.294-0.45,0.603-0.962,0.907-1.529c0.386,0.539,0.166,1.759-0.223,2.813c0.319-0.31,1.664-2.564,2.075-4.549
	c0.589,0.398,0.104,2.73,0,3.548c0.382-0.674,1.566-3.313,1.566-5.624c0.767,0.443,0.918,2.81,0.734,4.052l0.004-0.003
	c0.418-0.98,1.119-3.576,0.618-6.734v-0.002c0.411,0,0.873,0.425,1.289,1.092c0.414,0.666,0.783,1.574,1.005,2.545
	c-0.075-3.434-1.163-6.136-1.403-6.547c0.885-0.394,2.54,1.624,3.33,3.089c-0.451-2.349-1.627-5.003-2.824-6.162
	c0.627-0.612,2.824,0.39,4.095,1.75c-0.934-2.106-2.899-4.016-4-4.724c0.802-1.042,3.251-0.113,4.386,0.7V61.58
	c-0.886-1.791-3.476-3.192-4.553-3.583c0.766-1.003,2.896-0.938,4.317-0.404c-0.845-1.116-3.928-2.37-4.817-2.441
	c0.545-0.899,2.778-0.653,4.482,0.32c-1.572-2.006-5.146-3.132-5.424-3.17c0.652-0.75,2.672-0.425,4.676,0.255
	c-1.641-1.415-5.642-2.825-6.052-2.826c0.366-0.857,2.319-1.162,4.411-1.012c-2.105-0.892-5.188-1.309-6.291-1.309
	c0.262-1.059,2.192-1.364,4.401-1.507c-2.155-0.567-5.944-0.699-6.958-0.567c0-1.066,2.171-1.737,4.437-1.966
	c-2.82-0.37-6.29-0.051-7.914,0.229c-0.29-0.899,1.88-2.023,4.32-2.526c-3.726-0.194-7.329,0.984-8.636,1.442
	c-0.402-0.853,2.026-2.397,3.787-3.088c-3.199,0.234-6.141,1.726-7.636,2.713l0.068,0.88l-3.189,3.647l1.367,4.69l1.739,3.141
	c-0.654-0.729-1.433-1.461-2.349-2.191c2.073,2.086,3.617,5.436,4.149,7.825c-0.045-0.078-0.102-0.13-0.149-0.203
	c2.474,5.541-1.683,10.55-6.086,12.914c-6.214,3.359-9.739,3.034-15.883,10.244C6.333,90.295,9.732,103.146,9.732,103.146z"/>
<linearGradient id="SVGID_3_" gradientUnits="userSpaceOnUse" x1="-440.6621" y1="999.21" x2="-439.0939" y2="999.21" gradientTransform="matrix(0 30.5801 30.5801 0 -30526.0059 13488.6182)">
	<stop  offset="0.2808" style="stop-color:#32578C"/>
	<stop  offset="1" style="stop-color:#1F3759"/>
</linearGradient>
<path fill="url(#SVGID_3_)" d="M29.823,35.949l-0.016,0.022l0.034-0.024c0.077-0.054,0.177-0.115,0.264-0.172l-0.064-0.836
	C29.797,35.345,29.68,35.712,29.823,35.949z"/>
<linearGradient id="SVGID_4_" gradientUnits="userSpaceOnUse" x1="-440.0283" y1="998.9971" x2="-438.9756" y2="998.9971" gradientTransform="matrix(0 30.5801 30.5801 0 -30526.0059 13488.6182)">
	<stop  offset="0.2808" style="stop-color:#32578C"/>
	<stop  offset="1" style="stop-color:#1F3759"/>
</linearGradient>
<path fill="url(#SVGID_4_)" d="M20.658,39.633c-0.362,0.552-0.631,1.133-1.117,1.583c-0.414,0.385-1.378,0.879-1.841,0.238
	c-0.375-0.532-0.123-1.713,0.109-2.22c-2.067,2.313-1.366,3.556-0.829,4.474c0.21,0.353,0.591,1.416-0.131,1.748
	c-0.417,0.176-1.042,0.298-1.311,0.713c-0.179,0.272-0.236,0.714-0.48,0.922c-0.254,0.215-0.577,0.02-0.799,0.41
	c-0.167,0.294-0.093,0.783-0.113,1.138c-0.543-0.329-0.795-0.174-0.964,0.448c-0.186,0.682-0.43,0.561-0.77,0.979
	c-0.275,0.332-0.41,1.025-0.892,0.344c-0.3-0.422-0.25-1.155,0.039-1.653c-0.842,0.498-0.689,1.727-0.819,2.353
	c-0.143,0.705-0.332,1.153-0.879,0.401c-0.678-0.937-0.287-2.865,0.301-4.902c-2.451,3.082-1.899,6.74-1.818,7.708
	c0.031,0.342,0.127,0.965-0.032,1.292c-0.552,1.567,0.255,3.406,0.793,4.101c0.164,0.288,0.261,1.047,0.411,1.336
	c0.153,0.306,0.985,1.413,3.677,2.128c-1.06-0.928-1.542-2.313-1.241-3.346c0.398-0.247,0.945,0.449,1.301,0.635
	c0.552,0.286,1.105,0.239,1.681,0.39c1.176,0.303,3.451,3.864,7.398,3.864c-3.029-1.543-3.541-4.074-3.709-5.282
	c0.68,1.126,1.565,2.004,3.134,2.254c-2.408-1.916-1.569-4.236-0.387-5.393c0.704-0.757,1.676-0.99,2.932-1.19
	c0.136,0.768,0.484,1.574,1.246,2.051c-0.111-0.666-0.102-1.471,0-2.235l0.399-0.067c0.313,0.983,0.83,1.619,1.535,1.97
	c-0.161-0.913-0.182-1.689-0.058-2.262l0.389-0.098c0.507,0.869,1.172,1.411,1.858,1.447c-0.367-0.745-0.452-1.319-0.483-1.868
	c0.21-0.074,0.424-0.157,0.642-0.242l0.004,0.018c0.317,0.478,0.748,0.74,1.167,0.867c-0.166-0.426-0.253-1.036-0.205-1.309
	c0.693-0.257,2.935-0.229,4.328,0.277c1.245,0.466,2.577,1.258,3.576,2.786c-0.809-1.814-2.188-3.672-4.376-5.529l-0.496-5.805
	l0.875-4.303l-2.654,0.299l-0.956-4.121c-1.305-1.863-1.64-3.461-1.692-4.46L20.658,39.633z M21.662,44.991
	c-0.617,0.117-1.664-0.089-1.356-0.702c0.403-0.797,3.822-4.056,5.102-4.993C24.255,42.583,22.281,44.697,21.662,44.991z"/>
<linearGradient id="SVGID_5_" gradientUnits="userSpaceOnUse" x1="6.0874" y1="70.2197" x2="40.1255" y2="70.2197">
	<stop  offset="0.064" style="stop-color:#4071B5"/>
	<stop  offset="0.7143" style="stop-color:#32578C"/>
	<stop  offset="1" style="stop-color:#2C4D7D"/>
</linearGradient>
<path fill="url(#SVGID_5_)" d="M39.574,55.204c-1.508-5.601-7.202-11.851-12.543-14.743l1.32,4.532l1.739,3.141
	c-0.655-0.729-1.434-1.461-2.35-2.191c2.074,2.086,3.618,5.436,4.15,7.825c-0.046-0.077-0.102-0.13-0.15-0.203
	c2.473,5.541-1.684,10.551-6.086,12.914c-6.213,3.359-9.739,3.034-15.883,10.244c-6.145,7.208-2.747,20.059-2.747,20.059l2.49,2.624
	l0.129,0.571c0.244-0.21,0.49-0.391,0.737-0.56c-0.474-2.229-0.765-5.079,0.08-7.303c1.625-4.277,5.688-8.61,9.208-10.235
	c3.521-1.625,11.668-6.444,14.083-9.479C38.22,66.786,41.47,62.245,39.574,55.204z"/>
<linearGradient id="SVGID_6_" gradientUnits="userSpaceOnUse" x1="-440.6621" y1="999.21" x2="-439.0939" y2="999.21" gradientTransform="matrix(0 30.5801 30.5801 0 -30526.0059 13488.6182)">
	<stop  offset="0" style="stop-color:#4872AB"/>
	<stop  offset="0.1527" style="stop-color:#4872AB"/>
	<stop  offset="0.4729" style="stop-color:#4770AA"/>
	<stop  offset="1" style="stop-color:#32578C"/>
</linearGradient>
<path fill="url(#SVGID_6_)" d="M29.823,35.949l-0.016,0.022l0.034-0.024c0.077-0.054,0.177-0.115,0.264-0.172l-0.064-0.836
	C29.797,35.345,29.68,35.712,29.823,35.949z"/>
<linearGradient id="SVGID_7_" gradientUnits="userSpaceOnUse" x1="-440.8721" y1="999.1699" x2="-439.0654" y2="999.1699" gradientTransform="matrix(0 30.5801 30.5801 0 -30526.0059 13488.6182)">
	<stop  offset="0" style="stop-color:#4872AB"/>
	<stop  offset="0.1527" style="stop-color:#4872AB"/>
	<stop  offset="0.4729" style="stop-color:#4770AA"/>
	<stop  offset="1" style="stop-color:#32578C"/>
</linearGradient>
<path fill="url(#SVGID_7_)" d="M33.902,48.164l-0.496-5.805l0.874-4.304l-2.653,0.299l-0.956-4.12
	c-1.306-1.864-1.641-3.461-1.692-4.46c0-1.489,0.532-3.815,0.818-4.57c-1.011,1.32-2.184,4.07-2.549,5.727
	c0.383-3.692,2.691-9.362,6.155-8.314c-0.009-0.58,0.02-1.211,0.175-1.916c1.507-2.433,5.79-6.613,16.131-12.393
	c-3.801,1.157-9.021,3.964-11.693,5.78c2.169-2.049,5.337-4.47,9.961-7.375c-24.481,10.73-24.291,24.93-27.742,30.172
	c-0.362,0.551-0.631,1.132-1.117,1.582c-0.415,0.386-1.379,0.88-1.842,0.238c-0.375-0.532-0.122-1.713,0.11-2.22
	c-2.068,2.313-1.366,3.556-0.83,4.474c0.21,0.353,0.591,1.416-0.13,1.748c-0.417,0.176-1.042,0.298-1.312,0.714
	c-0.178,0.272-0.235,0.713-0.48,0.922c-0.253,0.215-0.576,0.02-0.798,0.41c-0.167,0.295-0.094,0.784-0.114,1.138
	c-0.543-0.328-0.795-0.174-0.965,0.448c-0.186,0.683-0.43,0.561-0.77,0.979c-0.275,0.332-0.41,1.025-0.893,0.344
	c-0.299-0.422-0.25-1.154,0.04-1.653c-0.842,0.499-0.69,1.728-0.819,2.354c-0.143,0.704-0.333,1.152-0.879,0.4
	c-0.678-0.937-0.287-2.865,0.302-4.902c-2.452,3.081-1.899,6.74-1.818,7.707c0.031,0.343,0.127,0.965-0.032,1.293
	c-0.552,1.566,0.255,3.406,0.793,4.1c0.164,0.288,0.262,1.047,0.41,1.337c0.154,0.306,0.985,1.413,3.678,2.127
	c-1.06-0.927-1.542-2.313-1.242-3.345c0.398-0.248,0.945,0.449,1.301,0.635c0.553,0.286,1.105,0.238,1.682,0.389
	c1.176,0.304,3.451,3.864,7.398,3.864c-3.029-1.543-3.541-4.074-3.709-5.282c0.68,1.126,1.565,2.004,3.134,2.255
	c-2.408-1.917-1.569-4.237-0.387-5.394c0.704-0.756,1.675-0.99,2.932-1.189c0.135,0.767,0.484,1.574,1.245,2.051
	c-0.111-0.666-0.1-1.472,0-2.236l0.399-0.067c0.314,0.984,0.83,1.62,1.535,1.97c-0.16-0.913-0.181-1.689-0.058-2.262l0.389-0.098
	c0.507,0.868,1.172,1.411,1.859,1.447c-0.368-0.745-0.452-1.319-0.483-1.869c0.21-0.074,0.424-0.157,0.642-0.242l0.003,0.018
	c0.317,0.478,0.749,0.741,1.168,0.868c-0.166-0.425-0.252-1.036-0.204-1.31c0.693-0.257,2.934-0.228,4.328,0.277
	c1.245,0.467,2.578,1.258,3.576,2.787C37.469,51.878,36.089,50.021,33.902,48.164z M20.367,43.476
	c-0.578,0.109-1.56-0.083-1.271-0.659c0.378-0.747,3.583-3.803,4.784-4.681C22.797,41.218,20.947,43.2,20.367,43.476z"/>
</svg>
